
<svg xmlns="http://www.w3.org/2000/svg" viewBox="0 0 32 32">
  <rect width="32" height="32" rx="6" fill="#1677FF"/>
  <path fill="#fff" d="M10.5 9h3v2h4v1.3h-4V14h3.5v1.3h-3.5V17h-1.5v-1.7H8.5V14H12v-1.7H8.5V11H12V9h-1.5zm12.8 10.4c-1.6-.5-3.3-1.1-4.8-1.7.5-.9.9-1.9 1.2-3h-2.2c-.2.7-.4 1.4-.7 2-1.6-.6-2.8-1.1-3.4-1.3-1.6-.6-3.6.1-4.3 1.6-.7 1.7.4 3.4 2.2 3.7 1.6.3 3.3-.5 4.6-1.9 1.7.7 4 1.7 6.3 2.5l1.1-1.9zM11.5 19c-.7 0-1.2-.5-1.1-1.1.1-.7.9-1 1.6-.8.5.2 1.2.4 2 .7-.7.8-1.6 1.2-2.5 1.2z"/>
</svg>
