
<svg xmlns="http://www.w3.org/2000/svg" viewBox="0 0 32 32">
  <path fill="#07C160" d="M12.5 4C6.7 4 2 7.9 2 12.7c0 2.7 1.5 5.2 4 6.8l-.9 2.7 3.2-1.7c1.3.4 2.7.6 4.2.6.4 0 .8 0 1.2-.1-.2-.7-.3-1.4-.3-2.2 0-4.5 4.3-8.1 9.5-8.1.4 0 .8 0 1.2.1C23.1 6.9 18.3 4 12.5 4z"/>
  <circle cx="9" cy="11" r="1.3" fill="#fff"/>
  <circle cx="16" cy="11" r="1.3" fill="#fff"/>
  <path fill="#07C160" d="M30 19.9c0-3.8-3.9-6.9-8.7-6.9s-8.7 3.1-8.7 6.9c0 3.8 3.9 6.9 8.7 6.9 1.1 0 2.2-.2 3.2-.5l2.8 1.5-.8-2.4c2.1-1.3 3.5-3.3 3.5-5.5z"/>
  <circle cx="18.3" cy="18.7" r="1.1" fill="#fff"/>
  <circle cx="24.3" cy="18.7" r="1.1" fill="#fff"/>
</svg>
